<svg width="70" height="70" viewBox="0 0 70 70" fill="none" xmlns="http://www.w3.org/2000/svg">
<circle cx="35" cy="35" r="34" fill="#FFFFEF" stroke="#F7B417" stroke-width="2"/>
<path d="M24.864 26.2671C24.9995 26.4416 25.1486 26.6133 25.3113 26.7759C22.8278 28.8215 21.0204 31.7082 21.0203 35.0972C21.0203 41.0239 25.6365 45.9711 32.657 45.9712C33.1856 45.9712 33.9609 45.9421 34.7166 45.8794C35.3049 45.8305 35.9259 45.7562 36.4167 45.6499L40.0369 47.9155L41.1853 48.6343V43.8452C41.7852 43.3145 42.3352 42.7261 42.8552 42.146C43.0162 42.2934 43.1845 42.4417 43.364 42.5835C42.9884 43.0545 42.5639 43.5086 42.0818 43.8999L41.8044 44.1245V49.188L36.7947 46.397L36.6248 46.3022H36.3699L36.321 46.3091C35.4817 46.4184 33.4997 46.5415 32.6453 46.5415C25.1771 46.5413 20.2851 41.1442 20.2849 34.9614C20.2849 31.5036 22.1758 28.3786 24.864 26.2671ZM30.488 20.2935C31.3058 20.2469 32.3726 20.3874 33.6306 20.7671C36.1392 21.5243 39.2989 23.1996 42.5417 25.9976V25.9985C45.74 28.8719 47.7987 31.7564 48.8572 34.0903C49.3876 35.26 49.6543 36.2636 49.7058 37.0396C49.7584 37.8327 49.5827 38.2727 49.3845 38.479L49.3699 38.4937L49.3572 38.5093C48.9782 38.9485 48.6644 39.354 48.2849 39.7593C47.9177 40.1515 47.5705 40.4493 47.2234 40.6196C46.8988 40.7789 46.5733 40.8291 46.196 40.7231C45.8194 40.6173 45.3322 40.3361 44.7234 39.7212L44.6111 39.5981C43.1925 38.0391 43.0002 37.2294 43.072 36.7476C43.1098 36.4946 43.2314 36.2383 43.4607 35.9233C43.7024 35.5914 43.9962 35.279 44.3679 34.8481L44.3669 34.8472C44.8308 34.3283 44.8614 33.6851 44.7126 33.1187C44.5676 32.5666 44.2375 31.9984 43.8406 31.4565C43.1397 30.4999 42.1038 29.4566 41.0154 28.4702L40.5466 28.0513L40.5427 28.0474L40.0828 27.6558C38.9951 26.7443 37.8164 25.8713 36.7517 25.3042C36.1483 24.9828 35.5292 24.7314 34.9539 24.6528C34.4062 24.578 33.7943 24.6521 33.3259 25.0913L33.241 25.1763C32.8697 25.5697 32.5992 25.8809 32.3015 26.145C32.0191 26.3956 31.7737 26.5446 31.5154 26.6118C31.0499 26.7329 30.2696 26.6515 28.7625 25.6606L28.4509 25.4497C27.6351 24.8831 27.256 24.4095 27.0964 24.0474C26.95 23.7148 26.9618 23.418 27.0818 23.103C27.2127 22.7596 27.4724 22.3977 27.8279 22.0015C28.0022 21.8072 28.1893 21.6158 28.3826 21.4204C28.5715 21.2294 28.7727 21.0288 28.9548 20.8345L28.9617 20.8267L28.9695 20.8188C29.1851 20.5748 29.6523 20.341 30.488 20.2935Z" stroke="black" stroke-width="1.5"/>
</svg>
