<svg width="70" height="70" viewBox="0 0 70 70" fill="none" xmlns="http://www.w3.org/2000/svg">
<circle cx="35" cy="35" r="34" fill="#FFFFEF" stroke="#F7B417" stroke-width="2"/>
<path d="M46.0493 14.6514H15.4653V50.0454H46.0493V14.6514Z" fill="white" stroke="black" stroke-width="0.25" stroke-miterlimit="10"/>
<line x1="29.3025" y1="17.6572" x2="44.7676" y2="17.6572" stroke="black" stroke-width="0.5"/>
<line x1="29.3025" y1="19.2852" x2="44.7676" y2="19.2852" stroke="black" stroke-width="0.5"/>
<line x1="29.3025" y1="20.9131" x2="44.7676" y2="20.9131" stroke="black" stroke-width="0.5"/>
<line x1="29.3025" y1="22.541" x2="44.7676" y2="22.541" stroke="black" stroke-width="0.5"/>
<line x1="17.0933" y1="27.4248" x2="44.7677" y2="27.4248" stroke="black" stroke-width="0.5"/>
<line x1="17.0933" y1="29.0527" x2="44.7677" y2="29.0527" stroke="black" stroke-width="0.5"/>
<line x1="17.0933" y1="30.6807" x2="39.884" y2="30.6807" stroke="black" stroke-width="0.5"/>
<line x1="17.0933" y1="32.3081" x2="39.884" y2="32.3081" stroke="black" stroke-width="0.5"/>
<line x1="17.0933" y1="33.936" x2="41.5119" y2="33.936" stroke="black" stroke-width="0.5"/>
<line x1="17.0933" y1="35.564" x2="41.5119" y2="35.564" stroke="black" stroke-width="0.5"/>
<line x1="17.0933" y1="37.1919" x2="44.7677" y2="37.1919" stroke="black" stroke-width="0.5"/>
<line x1="17.0933" y1="38.8198" x2="44.7677" y2="38.8198" stroke="black" stroke-width="0.5"/>
<line x1="17.0933" y1="40.4478" x2="39.07" y2="40.4478" stroke="black" stroke-width="0.5"/>
<line x1="17.0933" y1="42.0757" x2="39.07" y2="42.0757" stroke="black" stroke-width="0.5"/>
<line x1="17.0933" y1="43.7036" x2="41.5119" y2="43.7036" stroke="black" stroke-width="0.5"/>
<line x1="17.0933" y1="45.3315" x2="41.5119" y2="45.3315" stroke="black" stroke-width="0.5"/>
<line x1="17.0933" y1="46.9595" x2="44.7677" y2="46.9595" stroke="black" stroke-width="0.5"/>
<line x1="17.0933" y1="48.5874" x2="44.7677" y2="48.5874" stroke="black" stroke-width="0.5"/>
<line x1="29.3025" y1="24.1689" x2="41.5118" y2="24.1689" stroke="black" stroke-width="0.5"/>
<line x1="29.3025" y1="25.7969" x2="41.5118" y2="25.7969" stroke="black" stroke-width="0.5"/>
<path d="M27.7417 17.1367V25.7725H17.48V17.1367H27.7417Z" stroke="black" stroke-width="0.5"/>
<path d="M54.3803 40.3315H32.4036V55.7967H54.3803V40.3315Z" fill="#F7B417"/>
<path d="M34.9997 54.5324C34.9997 54.9813 34.6374 55.3491 34.1885 55.3491C33.7396 55.3491 33.3718 54.9867 33.3718 54.5324C33.3718 54.0781 33.7342 53.7212 34.1885 53.7212C34.6428 53.7212 34.9997 54.0835 34.9997 54.5324Z" fill="#B45309"/>
<path d="M37.4414 54.5324C37.4414 54.9813 37.0802 55.3491 36.6274 55.3491C36.1746 55.3491 35.8135 54.9867 35.8135 54.5324C35.8135 54.0781 36.18 53.7212 36.6274 53.7212C37.0748 53.7212 37.4414 54.0835 37.4414 54.5324Z" fill="#B45309"/>
<path d="M39.0693 54.5352H52.0926V54.5352H39.0693V54.5352Z" stroke="white" stroke-width="0.5"/>
<path d="M38.9153 54.5791C38.9153 54.8034 38.7372 54.9829 38.5083 54.9829C38.2794 54.9829 38.1013 54.8034 38.1013 54.5791C38.1013 54.3548 38.2857 54.1689 38.5083 54.1689C38.7309 54.1689 38.9153 54.3484 38.9153 54.5791Z" fill="#F2F2F2"/>
<path d="M53.5664 54.1689H52.7524V54.9829H53.5664V54.1689Z" fill="#B45309"/>
<path d="M53.5664 41.1455H33.2175V53.3548H53.5664V41.1455Z" fill="#FFFFEF"/>
<path d="M41.3569 44.4014V49.2851L45.4267 46.8466L41.3569 44.4014Z" fill="#F7B417"/>
</svg>
