<svg width="46" height="46" viewBox="0 0 46 46" fill="none" xmlns="http://www.w3.org/2000/svg">
<circle cx="23" cy="23" r="22" fill="#FFFFEF" stroke="#F7B417" stroke-width="2"/>
<circle cx="23.0001" cy="23.0001" r="13.7857" fill="#FAFAFA" stroke="#F7B417" stroke-width="2"/>
<g clip-path="url(#clip0_4848_8648)">
<path d="M19.2851 26.9359C21.0196 26.3174 22.2459 24.6869 22.2459 22.7753C22.2459 20.3576 20.2905 18.3335 17.8324 18.3335C15.3743 18.3335 13.4189 20.3014 13.4189 22.7753C13.4189 24.6869 14.6507 26.3737 16.3796 26.9359C11.6347 27.6106 8 31.7712 8 36.6628C8 36.8315 8.16571 37.0002 8.33695 37.0002C8.50819 37.0002 8.6739 36.8315 8.6739 36.6628C8.6739 31.6026 12.7505 27.4982 17.7827 27.4982C22.8149 27.4982 26.8914 31.6026 26.8914 36.6628C26.8914 36.8315 27.0571 37.0002 27.2284 37.0002C27.3996 37.0002 27.5653 36.8315 27.5653 36.6628C27.6206 31.715 23.9914 27.6106 19.2962 26.9359H19.2851Z" fill="black"/>
<path d="M28.7861 17.5462C30.4045 16.9277 31.5811 15.2972 31.5811 13.4418C31.5811 11.0241 29.6257 9 27.1676 9C24.7095 9 22.8093 10.9679 22.8093 13.3855C22.8093 15.241 23.9803 16.8715 25.6043 17.49C24.0963 17.7149 22.6436 18.3333 21.4118 19.2329C21.2461 19.3454 21.2461 19.5703 21.3565 19.739C21.467 19.9076 21.6935 19.9076 21.8592 19.7952C23.4224 18.6145 25.2674 18.0522 27.2228 18.0522C32.2495 18.0522 36.3316 22.1566 36.3316 27.2169C36.3316 27.3855 36.4973 27.5542 36.6685 27.5542C36.8398 27.5542 37.0055 27.3855 37.0055 27.2169C37.0055 22.3815 33.4868 18.2771 28.7916 17.5462H28.7861Z" fill="black"/>
</g>
<defs>
<clipPath id="clip0_4848_8648">
<rect width="29" height="28" fill="white" transform="translate(8 9)"/>
</clipPath>
</defs>
</svg>
