<svg width="46" height="46" viewBox="0 0 46 46" fill="none" xmlns="http://www.w3.org/2000/svg">
<circle cx="23" cy="23" r="22" fill="#FFFFEF" stroke="#F7B417" stroke-width="2"/>
<circle cx="23.0001" cy="23.0001" r="13.7857" fill="#FAFAFA" stroke="#F7B417" stroke-width="2"/>
<g clip-path="url(#clip0_4848_8650)">
<path d="M29.5198 30.0001H16.4816C16.1497 30.0001 15.9182 29.6992 16.0277 29.4135L16.9964 26.9024C17.0643 26.7265 17.2466 26.6084 17.4503 26.6084H28.5511C28.7541 26.6084 28.9356 26.7259 29.0036 26.9024L29.9723 29.4135C30.0831 29.6992 29.8517 30.0001 29.5198 30.0001Z" fill="black"/>
<path d="M20.6992 16.7969H25.3008C26.0144 16.7969 26.604 17.2625 26.7314 17.875L26.751 17.999L27.6094 26.4834H18.3896L19.249 17.999C19.3172 17.3268 19.9374 16.797 20.6992 16.7969Z" stroke="black" stroke-width="0.25"/>
<path d="M23 23.9882C23.1802 23.9882 23.3263 23.8543 23.3263 23.6892C23.3263 23.524 23.1802 23.3901 23 23.3901C22.8197 23.3901 22.6736 23.524 22.6736 23.6892C22.6736 23.8543 22.8197 23.9882 23 23.9882Z" fill="black"/>
<path d="M23.1212 22.8488H22.8786C22.7407 22.8488 22.6243 22.7535 22.6091 22.6278L22.2418 19.5656C22.2245 19.4189 22.3499 19.29 22.5114 19.29H23.4884C23.6499 19.29 23.7753 19.4183 23.758 19.5656L23.3907 22.6278C23.3755 22.7535 23.2598 22.8488 23.1212 22.8488Z" fill="black"/>
<path d="M27.2333 14.2846C27.2685 14.164 27.1904 14.04 27.0588 14.0077C26.9272 13.9754 26.792 14.047 26.7567 14.1675L26.3803 15.4548C26.345 15.5754 26.4231 15.6994 26.5547 15.7317C26.6863 15.764 26.8216 15.6924 26.8568 15.5718L27.2333 14.2846Z" fill="black"/>
<path d="M29.7175 16.8814C29.8491 16.8491 29.9272 16.7251 29.892 16.6046C29.8567 16.484 29.7214 16.4124 29.5898 16.4447L28.1849 16.7897C28.0533 16.822 27.9752 16.9459 28.0105 17.0665C28.0458 17.1871 28.181 17.2586 28.3126 17.2263L29.7175 16.8814Z" fill="black"/>
<path d="M27.64 16.0655L27.6459 16.0709C27.7406 16.1577 27.8942 16.1577 27.9889 16.0709L29.0232 15.1231C29.1179 15.0364 29.1179 14.8957 29.0232 14.8089L29.0173 14.8035C28.9226 14.7167 28.7691 14.7167 28.6744 14.8035L27.64 15.7512C27.5453 15.838 27.5453 15.9787 27.64 16.0655Z" fill="black"/>
<path d="M19.1429 15.572C19.1782 15.6926 19.3135 15.7642 19.4451 15.7318C19.5767 15.6995 19.6548 15.5756 19.6195 15.455L19.2431 14.1677C19.2078 14.0471 19.0725 13.9756 18.9409 14.0079C18.8093 14.0402 18.7312 14.1641 18.7665 14.2847L19.1429 15.572Z" fill="black"/>
<path d="M17.686 17.2258C17.8176 17.2581 17.9529 17.1866 17.9882 17.066C18.0234 16.9454 17.9453 16.8215 17.8137 16.7892L16.4088 16.4442C16.2772 16.4119 16.142 16.4835 16.1067 16.6041C16.0714 16.7246 16.1495 16.8486 16.2811 16.8809L17.686 17.2258Z" fill="black"/>
<path d="M16.9816 14.8033L16.9757 14.8087C16.881 14.8955 16.881 15.0362 16.9757 15.123L18.01 16.0707C18.1047 16.1575 18.2583 16.1575 18.353 16.0707L18.3589 16.0653C18.4536 15.9785 18.4536 15.8378 18.3589 15.751L17.3246 14.8033C17.2298 14.7165 17.0763 14.7165 16.9816 14.8033Z" fill="black"/>
</g>
<defs>
<clipPath id="clip0_4848_8650">
<rect width="14" height="16" fill="white" transform="translate(16 14)"/>
</clipPath>
</defs>
</svg>
