<svg width="491" height="468" viewBox="0 0 491 468" fill="none" xmlns="http://www.w3.org/2000/svg">
<path d="M440.438 317.679C396.106 422.295 278.014 480.903 175.604 465.094C158.939 462.521 113.255 454.859 72.8072 418.708C-5.05673 349.114 -21.7094 211.309 41.1019 114.196C86.8176 43.5144 168.767 3.44721 246.635 5.45124C263.407 5.88341 327.689 8.54321 384.18 55.2282C392.478 62.0846 410.779 78.3804 427.272 104.229C466.001 164.929 469.331 249.499 440.438 317.679Z" fill="url(#paint0_linear_4666_10689)"/>
<mask id="mask0_4666_10689" style="mask-type:luminance" maskUnits="userSpaceOnUse" x="5" y="0" width="458" height="467">
<path d="M442.848 315.509C398.516 421.187 280.424 480.389 178.014 464.42C161.349 461.821 115.665 454.081 75.2174 417.563C-2.64658 347.263 -19.2992 208.059 43.5121 109.96C89.2278 38.5611 171.177 -1.9128 249.045 0.111572C265.817 0.548134 330.099 3.23493 386.59 50.3938C394.888 57.3198 413.189 73.7811 429.682 99.8922C468.411 161.208 471.741 246.636 442.848 315.509Z" fill="white"/>
</mask>
<g mask="url(#mask0_4666_10689)">
<path opacity="0.49" d="M292.688 -117.595L296.028 169.833L359.108 -110.62L302.561 171.22L422.621 -90.0007L308.662 173.934L480.458 -56.6399L314.064 177.857L530.088 -11.9908L318.533 182.814L569.342 41.9895L321.873 188.594L596.506 102.946L323.936 194.938L610.391 168.212L324.635 201.574L610.391 234.937L323.936 208.21L596.506 300.204L321.873 214.556L569.342 361.161L318.533 220.335L530.088 415.141L314.064 225.294L480.458 459.788L308.662 229.216L422.621 493.151L302.561 231.93L359.108 513.77L296.028 233.317L292.688 520.745L289.35 233.317L226.271 513.77L282.817 231.93L162.757 493.151L276.717 229.216L104.92 459.788L271.314 225.294L55.2904 415.141L266.845 220.335L16.0363 361.161L263.505 214.556L-103.544 305.174L261.443 208.21L-114.1 232.449L260.743 201.574L-128.545 131.878L261.443 194.938L-99.655 55.1555L263.505 188.594L-23.3794 1.63026L266.845 182.814L55.2904 -11.9908L271.314 177.857L104.92 -56.6399L276.717 173.934L162.757 -90.0007L282.817 171.22L226.271 -110.62L289.35 169.833L292.688 -117.595Z" fill="white"/>
</g>
<path d="M228.258 102.637C228.258 102.637 228.193 90.405 227.194 88.7927C226.205 90.405 226.13 102.637 226.13 102.637C224.991 103.507 225.098 107.592 225.098 107.592H229.29C229.29 107.592 229.397 103.518 228.258 102.637Z" fill="#FAF1E5"/>
<path d="M249.76 195.472H204.625V240.616H249.76V195.472Z" fill="#FFD4A5"/>
<path d="M204.625 195.472H249.76V199.643L204.625 195.472Z" fill="#002D35"/>
<path d="M251.912 184.724H202.477C201.29 184.724 200.328 185.686 200.328 186.873V193.322C200.328 194.51 201.29 195.472 202.477 195.472H251.912C253.099 195.472 254.061 194.51 254.061 193.322V186.873C254.061 185.686 253.099 184.724 251.912 184.724Z" fill="#007D89"/>
<path d="M228.226 212.057V224.633H213.277V212.057C213.277 207.93 216.63 204.576 220.757 204.576C224.884 204.576 228.226 207.919 228.226 212.057Z" fill="#FF9802"/>
<path d="M222.164 204.716C221.702 204.63 221.229 204.576 220.745 204.576C216.619 204.576 213.266 207.919 213.266 212.057V224.633H216.103V212.057C216.103 208.413 218.714 205.382 222.164 204.716Z" fill="#FF7319"/>
<path d="M249.76 139.58H204.625V184.724H249.76V139.58Z" fill="#FFD4A5"/>
<path d="M204.625 139.58H249.76V143.75L204.625 139.58Z" fill="#002D35"/>
<path d="M251.912 128.831H202.477C201.29 128.831 200.328 129.794 200.328 130.981V137.43C200.328 138.617 201.29 139.58 202.477 139.58H251.912C253.099 139.58 254.061 138.617 254.061 137.43V130.981C254.061 129.794 253.099 128.831 251.912 128.831Z" fill="#007D89"/>
<path d="M228.226 156.165V168.741H213.277V156.165C213.277 152.037 216.63 148.684 220.757 148.684C224.884 148.684 228.226 152.026 228.226 156.165Z" fill="#FF9802"/>
<path d="M222.164 148.823C221.702 148.737 221.229 148.684 220.745 148.684C216.619 148.684 213.266 152.026 213.266 156.165V168.741H216.103V156.165C216.103 152.521 218.714 149.49 222.164 148.823Z" fill="#FF7319"/>
<path d="M227.193 104.249C219.95 110.29 204.625 113.385 204.625 128.831H249.76C249.76 113.385 234.436 110.29 227.193 104.249Z" fill="#FFD4A5"/>
<path d="M227.193 104.249C224.184 110.29 217.801 113.385 217.801 128.831H236.575C236.575 113.385 230.202 110.29 227.183 104.249H227.193Z" fill="#FF9802"/>
<path d="M276.63 240.616H177.762V361H276.63V240.616Z" fill="#FF9802"/>
<path d="M177.761 361H237.941L237.941 240.616H177.761V361Z" fill="#FFD4A5"/>
<path d="M276.63 240.616H177.762V248.624H276.63V240.616Z" fill="#002D35"/>
<path d="M219.52 273.184V292.822H196.168V273.184C196.168 266.735 201.391 261.511 207.849 261.511C214.297 261.511 219.52 266.735 219.52 273.184Z" fill="#FF9802"/>
<path d="M210.063 261.716C209.343 261.576 208.612 261.501 207.849 261.501C201.402 261.501 196.168 266.724 196.168 273.174V292.811H200.596V273.174C200.596 267.488 204.668 262.747 210.053 261.716H210.063Z" fill="#FF7319"/>
<path d="M219.52 320.746V340.384H196.168V320.746C196.168 314.297 201.391 309.074 207.849 309.074C214.297 309.074 219.52 314.297 219.52 320.746Z" fill="#FF9802"/>
<path d="M210.063 309.278C209.343 309.138 208.612 309.063 207.849 309.063C201.402 309.063 196.168 314.287 196.168 320.736V340.374H200.596V320.736C200.596 315.05 204.668 310.31 210.053 309.278H210.063Z" fill="#FF7319"/>
<path d="M280.391 236.317H174V244.916H280.391V236.317Z" fill="#007D89"/>
<path d="M280.391 236.317H241.703V244.916H280.391V236.317Z" fill="#9D483D"/>
<path d="M322.798 113.826C322.755 112.579 322.572 110.376 321.766 109.763C321.766 109.763 321.702 97.5313 320.703 95.919C319.714 97.5313 319.639 109.763 319.639 109.763C318.833 110.376 318.65 112.59 318.607 113.837C316.393 114.686 314.824 116.814 314.824 119.329C314.824 122.575 317.457 125.209 320.703 125.209C323.948 125.209 326.581 122.575 326.581 119.329C326.581 116.814 325.001 114.664 322.777 113.826H322.798Z" fill="#FAF1E5"/>
<path d="M358.316 223.418H237.955V361H358.316V223.418Z" fill="#FF9802"/>
<path d="M348.643 223.418H247.625V361H348.643V223.418Z" fill="#FFD4A5"/>
<path d="M350.879 280.257C350.879 280.257 346.409 268.971 335.78 275.012C335.78 275.012 330.944 260.103 319.51 268.702C319.51 268.702 311.085 255.804 299.747 265.746C288.399 255.804 279.984 268.702 279.984 268.702C268.55 260.103 263.714 275.012 263.714 275.012C253.086 268.971 248.615 280.257 248.615 280.257" stroke="#FAF1E5" stroke-width="2" stroke-linecap="round" stroke-linejoin="round"/>
<path d="M250.849 223.418H247.625V361H250.849V223.418Z" fill="#FF7319"/>
<path d="M326.614 306.311V361H272.881V306.311C272.881 302.463 276.008 299.336 279.855 299.336C279.855 282.536 294.567 282.009 299.747 275.012C304.927 282.009 319.639 282.546 319.639 299.336C323.486 299.336 326.614 302.463 326.614 306.311Z" fill="#FAF1E5"/>
<path d="M287.915 299.336C287.915 285.878 297.361 282.858 303.777 278.591C302.187 277.537 300.779 276.398 299.747 275.012C294.567 282.009 279.855 282.536 279.855 299.336C276.008 299.336 272.881 302.463 272.881 306.311V361H280.941V306.311C280.941 302.463 284.068 299.336 287.915 299.336Z" fill="#FF9802"/>
<path d="M267.948 233.232C266.659 234.522 263.016 235.779 263.016 239.692V248H272.881V239.692C272.881 235.769 269.227 234.511 267.948 233.232Z" fill="#FAF1E5"/>
<path d="M269.195 234.188C268.701 233.845 268.26 233.544 267.948 233.232C266.659 234.522 263.016 235.779 263.016 239.692V248H265.498V239.692C265.498 236.704 267.615 235.263 269.184 234.178L269.195 234.188Z" fill="#FF9802"/>
<path d="M331.546 233.232C330.256 234.522 326.613 235.779 326.613 239.692V248H336.479V239.692C336.479 235.769 332.825 234.511 331.546 233.232Z" fill="#FAF1E5"/>
<path d="M332.793 234.188C332.298 233.845 331.858 233.544 331.546 233.232C330.256 234.522 326.613 235.779 326.613 239.692V248H329.096V239.692C329.096 236.704 331.213 235.263 332.782 234.178L332.793 234.188Z" fill="#FF9802"/>
<path d="M299.747 233.232C298.458 234.522 294.814 235.779 294.814 239.692V248H304.68V239.692C304.68 235.769 301.026 234.511 299.747 233.232Z" fill="#FAF1E5"/>
<path d="M300.994 234.188C300.499 233.845 300.059 233.544 299.747 233.232C298.458 234.522 294.814 235.779 294.814 239.692V248H297.297V239.692C297.297 236.704 299.414 235.263 300.983 234.178L300.994 234.188Z" fill="#FF9802"/>
<path d="M436.764 199.772H352.941V223.418H436.764V199.772Z" fill="#FF7319"/>
<path d="M352.941 199.772H243.326V223.418H352.941V199.772Z" fill="#FFD4A5"/>
<path d="M436.764 199.772H243.326V203.469H436.764V199.772Z" fill="#002D35"/>
<path d="M445.362 187.948H361.539V199.772H445.362V187.948Z" fill="#FF7319"/>
<path d="M361.538 187.948H234.729V199.772H361.538V187.948Z" fill="#FFD4A5"/>
<path d="M320.702 119.329C266.099 119.329 241.178 166.591 241.178 187.948H400.227C400.227 166.591 375.305 119.329 320.702 119.329Z" fill="#007D89"/>
<path d="M320.701 119.329C283.809 119.329 266.969 166.591 266.969 187.948H374.434C374.434 166.591 357.594 119.329 320.701 119.329Z" fill="#FFD4A5"/>
<path d="M320.702 119.329C285.647 119.329 269.656 166.591 269.656 187.948H371.748C371.748 166.591 355.758 119.329 320.702 119.329Z" fill="#00556C"/>
<path d="M320.702 119.329C314.791 119.329 302.314 153.424 302.314 187.948H339.089C339.089 153.424 326.612 119.329 320.702 119.329Z" fill="#007D89"/>
<path d="M444.287 223.418H348.643V361H444.287V223.418Z" fill="#FF9802"/>
<path d="M444.287 223.418H358.314V361H444.287V223.418Z" fill="#FF7319"/>
<path d="M358.314 223.418V361" stroke="#002D35" stroke-width="0.83" stroke-linejoin="round"/>
<path d="M265.359 206.221H256.762C256.169 206.221 255.688 206.702 255.688 207.296V215.894C255.688 216.488 256.169 216.969 256.762 216.969H265.359C265.953 216.969 266.434 216.488 266.434 215.894V207.296C266.434 206.702 265.953 206.221 265.359 206.221Z" fill="#FF9802"/>
<path d="M256.762 206.221H258.911V216.969H256.762C256.171 216.969 255.688 216.486 255.688 215.894V207.296C255.688 206.704 256.171 206.221 256.762 206.221Z" fill="#FF7319"/>
<path d="M283.896 206.221H275.299C274.706 206.221 274.225 206.702 274.225 207.296V215.894C274.225 216.488 274.706 216.969 275.299 216.969H283.896C284.49 216.969 284.971 216.488 284.971 215.894V207.296C284.971 206.702 284.49 206.221 283.896 206.221Z" fill="#FF9802"/>
<path d="M275.299 206.221H277.449V216.969H275.299C274.708 216.969 274.225 216.486 274.225 215.894V207.296C274.225 206.704 274.708 206.221 275.299 206.221Z" fill="#FF7319"/>
<path d="M302.436 206.221H293.838C293.245 206.221 292.764 206.702 292.764 207.296V215.894C292.764 216.488 293.245 216.969 293.838 216.969H302.436C303.029 216.969 303.51 216.488 303.51 215.894V207.296C303.51 206.702 303.029 206.221 302.436 206.221Z" fill="#FF9802"/>
<path d="M293.838 206.221H295.988V216.969H293.838C293.247 216.969 292.764 216.486 292.764 215.894V207.296C292.764 206.704 293.247 206.221 293.838 206.221Z" fill="#FF7319"/>
<path d="M320.973 206.221H312.375C311.782 206.221 311.301 206.702 311.301 207.296V215.894C311.301 216.488 311.782 216.969 312.375 216.969H320.973C321.566 216.969 322.047 216.488 322.047 215.894V207.296C322.047 206.702 321.566 206.221 320.973 206.221Z" fill="#FF9802"/>
<path d="M312.375 206.221H314.525V216.969H312.375C311.784 216.969 311.301 216.486 311.301 215.894V207.296C311.301 206.704 311.784 206.221 312.375 206.221Z" fill="#FF7319"/>
<path d="M339.51 206.221H330.913C330.319 206.221 329.838 206.702 329.838 207.296V215.894C329.838 216.488 330.319 216.969 330.913 216.969H339.51C340.103 216.969 340.584 216.488 340.584 215.894V207.296C340.584 206.702 340.103 206.221 339.51 206.221Z" fill="#FF9802"/>
<path d="M330.913 206.221H333.062V216.969H330.913C330.321 216.969 329.838 216.486 329.838 215.894V207.296C329.838 206.704 330.321 206.221 330.913 206.221Z" fill="#FF7319"/>
<path d="M445.887 223.418H237.941V228.793H445.887V223.418Z" fill="#002D35"/>
<path d="M445.887 220.731H234.729V226.106H445.887V220.731Z" fill="#FFD4A5"/>
<path d="M445.887 220.731H361.537V226.106H445.887V220.731Z" fill="#FF7319"/>
<path d="M237.942 226.106H234.729V220.731H243.326V199.772H234.729V197.127" stroke="#002D35" stroke-width="0.83" stroke-linecap="round" stroke-linejoin="round"/>
<path d="M243.326 220.731H445.888" stroke="#002D35" stroke-width="0.83" stroke-linecap="round" stroke-linejoin="round"/>
<path d="M338.992 288.565L335.21 294.499L331.438 288.565L335.21 282.632L338.992 288.565Z" fill="#FAF1E5"/>
<path d="M334.006 288.565L336.499 284.653L335.21 282.632L331.438 288.565L335.21 294.499L336.499 292.478L334.006 288.565Z" fill="#FF9802"/>
<path d="M268.057 288.565L264.285 294.499L260.502 288.565L264.285 282.632L268.057 288.565Z" fill="#FAF1E5"/>
<path d="M263.07 288.565L265.564 284.653L264.285 282.632L260.502 288.565L264.285 294.499L265.564 292.478L263.07 288.565Z" fill="#FF9802"/>
<path d="M426.004 102.637C426.004 102.637 425.94 90.405 424.94 88.7927C423.951 90.405 423.876 102.637 423.876 102.637C422.737 103.507 422.845 107.592 422.845 107.592H427.036C427.036 107.592 427.143 103.518 426.004 102.637Z" fill="#FAF1E5"/>
<path d="M447.507 195.472H402.371V240.616H447.507V195.472Z" fill="#FFD4A5"/>
<path d="M402.371 195.472H447.507V199.643L402.371 195.472Z" fill="#002D35"/>
<path d="M449.658 184.724H400.224C399.036 184.724 398.074 185.686 398.074 186.873V193.322C398.074 194.51 399.036 195.472 400.224 195.472H449.658C450.845 195.472 451.807 194.51 451.807 193.322V186.873C451.807 185.686 450.845 184.724 449.658 184.724Z" fill="#007D89"/>
<path d="M425.972 212.057V224.633H411.023V212.057C411.023 207.93 414.376 204.576 418.503 204.576C422.63 204.576 425.972 207.919 425.972 212.057Z" fill="#FF9802"/>
<path d="M419.91 204.716C419.448 204.63 418.975 204.576 418.491 204.576C414.365 204.576 411.012 207.919 411.012 212.057V224.633H413.849V212.057C413.849 208.413 416.46 205.382 419.91 204.716Z" fill="#FF7319"/>
<path d="M447.507 139.58H402.371V184.724H447.507V139.58Z" fill="#FFD4A5"/>
<path d="M402.371 139.58H447.507V143.75L402.371 139.58Z" fill="#002D35"/>
<path d="M449.658 128.831H400.224C399.036 128.831 398.074 129.794 398.074 130.981V137.43C398.074 138.617 399.036 139.58 400.224 139.58H449.658C450.845 139.58 451.807 138.617 451.807 137.43V130.981C451.807 129.794 450.845 128.831 449.658 128.831Z" fill="#007D89"/>
<path d="M425.972 156.165V168.741H411.023V156.165C411.023 152.037 414.376 148.684 418.503 148.684C422.63 148.684 425.972 152.026 425.972 156.165Z" fill="#FF9802"/>
<path d="M419.91 148.823C419.448 148.737 418.975 148.684 418.491 148.684C414.365 148.684 411.012 152.026 411.012 156.165V168.741H413.849V156.165C413.849 152.521 416.46 149.49 419.91 148.823Z" fill="#FF7319"/>
<path d="M424.939 104.249C417.696 110.29 402.371 113.385 402.371 128.831H447.507C447.507 113.385 432.182 110.29 424.939 104.249Z" fill="#FFD4A5"/>
<path d="M424.939 104.249C421.93 110.29 415.547 113.385 415.547 128.831H434.321C434.321 113.385 427.948 110.29 424.929 104.249H424.939Z" fill="#FF9802"/>
<path d="M474.376 240.616H375.508V361H474.376V240.616Z" fill="#FF7319"/>
<path d="M375.519 361H435.699V240.616H375.519V361Z" fill="#FFD4A5"/>
<path d="M474.376 240.616H375.508V248.624H474.376V240.616Z" fill="#002D35"/>
<path d="M417.28 273.184V292.822H393.928V273.184C393.928 266.735 399.151 261.511 405.609 261.511C412.057 261.511 417.28 266.735 417.28 273.184Z" fill="#FF9802"/>
<path d="M407.823 261.716C407.103 261.576 406.372 261.501 405.609 261.501C399.161 261.501 393.928 266.724 393.928 273.174V292.811H398.355V273.174C398.355 267.488 402.428 262.747 407.812 261.716H407.823Z" fill="#FF7319"/>
<path d="M417.28 320.746V340.384H393.928V320.746C393.928 314.297 399.151 309.074 405.609 309.074C412.057 309.074 417.28 314.297 417.28 320.746Z" fill="#FF9802"/>
<path d="M407.823 309.278C407.103 309.138 406.372 309.063 405.609 309.063C399.161 309.063 393.928 314.287 393.928 320.736V340.374H398.355V320.736C398.355 315.05 402.428 310.31 407.812 309.278H407.823Z" fill="#FF7319"/>
<path d="M478.137 236.317H371.746V244.916H478.137V236.317Z" fill="#007D89"/>
<path d="M478.137 236.317H439.449V244.916H478.137V236.317Z" fill="#00556C"/>
<path d="M66.9506 362.631C70.5358 362.519 133.164 377.514 161.98 372.232C196.602 365.892 328.592 335.667 378.992 346.213C409.44 352.582 450.19 341.802 475.946 363.183C516.892 397.179 465.229 452.635 428.895 462.089C409.725 467.077 389.628 467.049 369.8 466.987C267.348 466.674 39.8223 466.782 29.1857 463.323C-3.9132 452.56 -10.5611 400.391 18.0532 380.917C31.237 371.946 66.1401 362.657 66.9506 362.631Z" fill="#E6E6E6"/>
<path d="M106.741 445.179C125.234 445.511 143.785 446.165 162.209 445.533C192.357 444.498 222.671 442.509 251.963 435.191C256.819 433.978 261.767 432.558 265.768 429.514C269.769 426.47 272.672 421.434 271.878 416.419C270.505 407.738 255.82 405.955 249.431 402.459C243.866 399.413 238.748 393.796 239.479 387.417C240.307 380.178 248.015 375.964 255.037 374.467C271.057 371.053 287.73 375.26 304.019 373.639C306.396 373.403 309.074 372.845 310.319 370.772C312.049 367.89 309.704 364.038 306.704 362.585C303.704 361.131 300.233 361.144 297.044 360.196C293.855 359.246 290.614 356.645 290.843 353.278C291.13 349.051 296.218 347.271 300.34 346.644C305.027 345.932 309.747 345.323 314.476 345C307.159 346.763 304.763 353.372 312.765 356.809C317.695 358.926 323.008 360.427 327.202 363.804C330.036 366.085 332.285 370.321 330.161 373.293C329.66 373.994 328.971 374.526 328.269 375.019C320.819 380.256 311.749 381.688 303.023 383.237C299.818 383.806 284.137 385.271 283.761 389.355C283.537 391.794 286.304 393.241 288.558 394.112C298.598 397.998 307.755 404.22 315.123 412.164C318.92 416.257 322.309 420.927 323.85 426.328C330.5 449.636 296.784 456.839 281.012 459.828C249.66 465.769 216.989 464.305 185.151 465.127C140.644 465.127 95.968 467.321 51.3417 466.96C35.5612 466.833 19.2407 466.488 4.90752 459.781C2.8872 458.836 0.731881 457.541 0.135832 455.363C-1.70007 448.649 15.6216 448.48 19.0744 447.999C32.9531 446.058 46.8565 446.948 60.7583 445.945C75.974 444.847 91.3363 444.901 106.74 445.179H106.741Z" fill="#CCCCCC"/>
<path d="M100.821 284.46C100.248 282.861 90.6152 252.927 90.6152 252.927L105.437 256.23L112.188 279.486C112.763 280.649 123.194 308.781 126.817 317.849C127.544 319.671 129.145 320.977 131.062 321.383C131.072 321.385 131.083 321.387 131.093 321.389C132.378 321.664 134.871 322.543 135.397 322.901C136.009 323.318 137.239 324.217 137.975 324.769C138.708 325.321 139.593 325.938 139.947 326.276C140.163 326.482 140.782 326.726 141.234 326.886C141.907 327.123 141.941 328.071 141.283 328.348C140.662 328.609 139.743 328.313 139.173 328.127C137.565 327.602 135.469 325.906 135.401 326.154C135.332 326.401 137.726 330.295 137.971 330.758C138.215 331.221 140.974 335.76 141.218 336.817C141.461 337.874 140.844 338.202 140.315 337.868C139.858 337.583 135.585 331.593 135.585 331.593C135.585 331.593 135.037 330.831 134.922 331.32C134.807 331.809 138.676 337.254 139.102 338.173C139.529 339.093 139.379 339.908 138.452 339.682C137.322 339.407 133.55 333.34 133.55 333.34C133.55 333.34 133.063 332.587 132.832 332.899C132.602 333.21 135.973 337.787 136.074 338.351C136.175 338.913 135.73 339.536 134.926 339.154C133.978 338.705 130.658 333.261 130.658 333.261C130.658 333.261 130.288 332.919 130.22 333.2C130.151 333.481 132.746 337.589 132.671 338.244C132.608 338.796 132.113 338.748 132.113 338.748C131.036 338.877 129.066 334.534 127.563 332.834C126.059 331.134 101.466 286.231 100.83 284.46H100.821Z" fill="#F8A492"/>
<path d="M40.4691 443.983C40.4691 443.983 37.2987 447.078 37.228 448.213C37.1552 449.349 36.9471 461.516 38.2403 462.652C39.5335 463.788 43.3364 464.593 42.1139 465.871C41.1904 466.837 34.0838 466.631 29.3758 466.37C28.0017 466.295 26.2781 455.321 25.7325 453.708C24.9425 451.365 23.0188 446.088 23.7382 444.456C24.0877 443.662 25.7649 442.026 28.125 440.5C30.6083 438.894 32.9846 435.32 32.9846 435.32L40.4691 443.981V443.983Z" fill="#F48C7F"/>
<path d="M73.3055 451.189C73.3055 451.189 70.4685 459.207 70.4645 459.227C70.2543 460.497 69.4238 463.637 69.4238 464.791C69.4238 469.13 88.9775 461.107 84.5948 459.187C84.1987 459.013 82.954 457.622 82.8227 456.146C82.6226 453.872 84.4695 451.019 84.4695 451.019L73.3035 451.191L73.3055 451.189Z" fill="#F7A491"/>
<path d="M103.98 301.885C103.98 301.885 105.404 316.258 105.404 316.474C105.404 339.724 110.011 385.143 109.134 389.516C106.996 400.178 83.9955 454.569 83.9955 454.569L71.5625 453.083L87.762 387.961L81.8011 361.749L73.3649 309.936L103.978 301.887L103.98 301.885Z" fill="#355389"/>
<path d="M62.2565 314.598L59.8984 328.22L53.5152 384.287L29.209 439.085C29.209 439.085 32.6279 447.058 37.6714 448.178L76.3565 391.917L100.386 319.927L99.5434 303.933L62.2565 314.596V314.598Z" fill="#4064A6"/>
<path d="M108.938 267.661L91.7002 269.422C91.7002 269.422 90.9102 255.282 90.9102 248.538C90.9102 240.354 91.6073 229.814 92.5954 230.041C95.3677 230.678 99.0998 232.208 101.323 235.265C109.013 245.839 108.94 267.663 108.94 267.663L108.938 267.661Z" fill="#F7CC7F"/>
<path d="M100.468 247.094C100.829 249.589 107.455 317.418 107.455 317.418C76.0665 332.585 58.7456 320.119 58.7456 320.119C58.7456 320.119 59.7721 272.489 58.5415 266.005C57.7272 261.715 56.7108 233.215 59.4892 232.416C63.0536 231.391 67.1413 230.304 71.5969 229.841C75.3997 229.446 90.1746 229.216 92.8176 230.105C92.8176 230.105 98.9482 236.601 100.466 247.092L100.468 247.094Z" fill="#FAE0B2"/>
<path d="M28.2766 440.421C28.2766 440.421 35.5832 461.002 38.4424 461.995C39.2022 462.26 42.8454 462.929 43.5324 464.54C43.7385 465.025 43.5324 466.649 43.5324 466.649H28.3049C28.3049 466.649 26.3792 457.581 25.6174 453.597C25.6174 453.597 21.5863 443.862 22.0348 442.976C22.4834 442.091 28.2766 440.421 28.2766 440.421Z" fill="#13375B"/>
<path d="M68.3106 466.222L70.5495 459.144C70.5495 459.144 75.2515 461.136 77.6035 460.804C79.9556 460.473 84.5444 459.144 84.5444 459.144C93.9303 462.235 101.619 463.736 100.221 466.222H68.3086H68.3106Z" fill="#13375B"/>
<path d="M75.7744 215.915L73.4648 230.041C73.4648 230.041 81.9192 248.016 86.9688 246.502C91.2081 245.232 88.5994 229.794 88.5994 229.794C88.5994 229.794 86.2898 221.503 86.9829 217.354C87.676 213.206 75.7744 215.913 75.7744 215.913V215.915Z" fill="#F7A491"/>
<path d="M86.9825 217.356C87.6755 213.208 75.774 215.915 75.774 215.915L75.582 217.13C75.9296 217.943 76.3559 218.638 76.8732 219.172C79.5324 221.917 83.6868 223.567 87.2795 223.69C86.9198 221.454 86.6996 219.057 86.9825 217.354V217.356Z" fill="#F47458"/>
<path d="M73.8205 195.184C73.4851 195.067 71.125 211.873 75.6027 216.497C80.0804 221.121 88.8076 222.635 91.9355 218.994C95.3969 214.965 95.2231 196.902 88.26 192.145C81.2969 187.388 73.8185 195.184 73.8185 195.184H73.8205Z" fill="#F7A491"/>
<path d="M75.4612 188.708C72.9697 190.117 68.981 194.021 66.2652 197.507C62.6948 202.09 65.164 209.854 70.0741 213.495C74.9823 217.138 74.8954 221.309 74.8954 221.309L75.6915 219.168C76.2634 217.52 76.4977 215.771 76.3058 214.043C76.1906 213.006 75.9582 211.884 75.5117 210.962C74.3316 208.529 78.0476 206.914 79.0902 204.89C79.8924 203.332 79.9308 199.767 81.1957 197.192L82.7052 195.226C82.7052 195.226 86.1887 192.624 89.5975 193.358C93.0064 194.092 88.8196 178.137 75.4612 188.708Z" fill="#13375B"/>
<path d="M78.8612 207.88C78.8976 209.931 77.9256 211.611 76.691 211.631C75.4564 211.651 74.4279 210.005 74.3936 207.955C74.3572 205.905 75.3291 204.227 76.5637 204.205C77.7983 204.185 78.8268 205.83 78.8612 207.88Z" fill="#F7A491"/>
<path d="M101.124 296.707L74.1406 269.348L35.945 307.061L62.9287 334.42L101.124 296.707Z" fill="#13375B"/>
<path d="M39.918 260.812L52.3085 269.8L43.6864 283.461C50.5627 290.337 67.0915 301.35 67.0915 301.35C67.0915 301.35 68.6292 302.407 70.7064 303.608C71.1995 303.893 71.743 304.208 72.2967 304.528C73.2706 304.503 74.7598 304.493 75.6509 304.799C76.8573 305.211 79.1365 305.395 79.6457 305.763C80.1549 306.131 81.7715 307.94 81.4764 308.272C81.2158 308.567 82.4726 309.434 83.3193 310.276C83.5536 310.508 85.9845 312.332 86.2997 312.968C86.6149 313.605 85.7885 315.196 85.2166 315.423C85.2166 315.423 85.1035 315.546 85.2389 315.882C85.3722 316.217 85.257 317.091 84.96 317.457C84.663 317.823 83.8931 318.227 83.3597 317.877C83.3597 317.877 83.0647 317.766 82.9758 317.841C82.8889 317.914 82.7191 318.579 82.2887 318.985C81.8583 319.394 81.234 319.454 80.3752 318.939C80.3752 318.939 79.8377 321.142 78.0252 320.036L75.556 318.532C75.556 318.532 74.0243 318.067 73.4545 317.657C72.8847 317.246 70.0275 315.192 68.3584 313.351C67.1461 312.012 65.4043 310.267 64.1717 309.447C63.0199 308.915 61.8116 308.351 60.5568 307.76C43.153 299.568 26.1251 292.043 27.0222 285.734C27.5112 282.291 35.8868 266.436 39.9159 260.812H39.918Z" fill="#F7A491"/>
<path d="M79.8536 308.652C78.5402 306.074 77.1641 305.308 79.2413 305.589C81.3185 305.872 83.2382 306.125 83.6423 306.782C84.0464 307.439 86.8248 309.107 86.9763 309.562C86.8248 310.269 84.4 310.219 82.9856 309.056C81.5711 307.894 80.8134 308.668 80.8134 308.668L79.8536 308.652Z" fill="#F7A491"/>
<path d="M37.0859 261.196L52.0205 271.228C52.0205 271.228 60.4364 258.697 64.9566 254.235C70.6164 248.647 62.8955 231.525 59.2483 232.493C51.091 234.66 37.088 261.196 37.088 261.196H37.0859Z" fill="#FAE0B2"/>
<path d="M78.8606 204.205C80.3418 207.82 84.7185 208.827 88.6264 208.728C92.5323 208.629 93.4254 208.544 94.1427 208.734C95.4278 210.094 95.7451 222.847 93.5426 225.611C92.5868 226.81 83.5202 226.555 80.2731 223.693C77.9412 221.636 75.7751 217.769 75.6013 216.499C75.2902 214.223 75.5791 211.166 75.5791 211.166C78.8606 211.873 78.1211 205.21 78.1211 205.21L78.8586 204.205H78.8606Z" fill="#13375B"/>
<path d="M92.0265 211.746L84.627 212.5C84.627 212.5 85.0836 215.294 88.3469 215.058C92.3256 214.769 92.0265 211.746 92.0265 211.746Z" fill="white"/>
<path d="M82.6955 187.843C78.8603 183.8 76.7366 180.888 75.3909 180.08C74.0452 179.271 61.7071 184.663 58.7812 194.636C58.8217 196.522 66.3647 204.072 66.5001 204.205C76.6033 194.096 82.6955 187.843 82.6955 187.843Z" fill="#3D66B3"/>
<path d="M214.515 441.517C214.515 441.517 215.497 452.236 214.85 455.732C214.763 456.199 214.573 456.793 214.353 457.446C213.688 459.405 215.509 465.389 215.509 465.389L239.92 465.48C241.25 465.484 240.361 464.641 239.28 463.869C237.51 462.603 236.083 461.768 230.443 459.13C230.076 458.958 228.734 458.129 228.251 457.842C227.024 457.114 225.788 455.962 224.721 454.806C222.945 452.879 223.104 444.351 223.104 444.351L214.513 441.517H214.515Z" fill="#F7A491"/>
<path d="M228.248 457.838C221.814 459.573 217.027 458.507 214.346 457.466C213.681 459.423 212.45 465.869 213.178 466.038C215.041 466.473 229.286 467.247 242.02 466.922C242.649 466.906 242.572 464.753 242.162 464.277C241.03 462.961 228.733 458.127 228.248 457.84V457.838Z" fill="#13375B"/>
<path d="M183.898 314.277C183.898 314.277 184.246 329.577 188.629 339.374C192.896 348.917 213.325 372.454 218.754 386.19C217.075 393.939 212.462 404.828 212.796 413.417C213.173 423.149 212.608 448.9 212.608 448.9L224.067 449.248L236.631 382.797L216.281 311.092L206.447 293.681L183.898 314.274V314.277Z" fill="#B75742"/>
<path d="M137.064 425.3C137.064 425.3 130.329 434.55 127.361 436.887C125.773 438.138 121.456 439.82 121.002 441.891C120.547 443.961 140.543 462.276 140.543 462.276C141.602 463.214 141.483 461.916 141.162 460.537C140.636 458.283 140.083 456.615 137.43 450.548C137.256 450.152 136.767 448.548 136.581 447.98C136.112 446.539 135.932 444.749 135.892 443.077C135.825 440.292 142.235 432.558 142.235 432.558L137.06 425.3H137.064Z" fill="#F7A491"/>
<path d="M136.58 447.978C130.226 444.844 127.152 440.633 125.74 437.918C123.836 439.014 118.718 441.351 119.169 442.004C122.707 447.139 126.376 453.526 140.577 465.622C141.086 466.055 143.17 463.56 143.178 462.891C143.198 461.045 136.766 448.548 136.582 447.978H136.58Z" fill="#13375B"/>
<path d="M184.672 303.501C184.672 303.501 176.196 316.24 174.177 326.783C172.211 337.051 175.478 368.051 172.063 382.423C166.25 387.811 156.234 394.093 151.59 401.325C146.328 409.519 131.119 430.3 131.119 430.3L139.905 436.869L189.742 390.646L209.918 328.979L215.438 308.337L184.67 303.503L184.672 303.501Z" fill="#A34B3D"/>
<path d="M213.714 279.325C213.189 277.661 204.496 246.558 204.496 246.558L219.574 250.541L225.575 274.677C226.119 275.894 235.701 305.179 239.057 314.628C239.732 316.527 241.32 317.932 243.272 318.425C243.282 318.427 243.292 318.431 243.302 318.433C244.61 318.767 247.134 319.768 247.659 320.158C248.269 320.611 249.498 321.583 250.229 322.177C250.961 322.772 251.844 323.441 252.193 323.801C252.405 324.021 253.032 324.296 253.491 324.478C254.173 324.749 254.169 325.724 253.482 325.98C252.836 326.223 251.904 325.883 251.326 325.669C249.696 325.065 247.615 323.241 247.534 323.492C247.453 323.742 249.754 327.834 249.987 328.318C250.219 328.803 252.87 333.57 253.076 334.666C253.282 335.762 252.638 336.073 252.108 335.709C251.652 335.398 247.505 329.082 247.505 329.082C247.505 329.082 246.974 328.277 246.837 328.774C246.699 329.272 250.451 335.014 250.854 335.974C251.254 336.934 251.07 337.765 250.124 337.496C248.976 337.169 245.347 330.792 245.347 330.792C245.347 330.792 244.879 330.002 244.63 330.311C244.381 330.622 247.657 335.454 247.738 336.034C247.819 336.617 247.338 337.237 246.527 336.813C245.574 336.313 242.383 330.594 242.383 330.594C242.383 330.594 242.017 330.228 241.937 330.515C241.856 330.8 244.353 335.119 244.25 335.79C244.163 336.354 243.656 336.283 243.656 336.283C242.545 336.372 240.698 331.837 239.221 330.032C237.746 328.227 214.298 281.167 213.716 279.323L213.714 279.325Z" fill="#F8A492"/>
<path d="M219.574 250.541C223.981 258.408 233.613 289.268 236.695 298.313C239.776 307.358 241.645 315.589 241.645 315.589C238.623 320.214 233.391 321.634 233.391 321.634C228.697 317.966 214.201 283.255 211.774 279.875C209.347 276.492 205.474 261.677 206.05 259.983C206.628 258.286 219.572 250.541 219.572 250.541H219.574Z" fill="#355389"/>
<path d="M154.414 325.734C154.375 325.574 160.846 298.086 163.46 292.009C166.075 285.932 176.237 257.702 176.237 257.702L163.082 254.827C163.082 254.827 154.6 276.917 150.732 286.904C146.865 296.892 148.518 315.304 148.346 320.499C148.344 320.574 147.778 324.895 147.774 324.967C147.643 325.542 147.519 326.023 147.463 326.114C147.305 326.367 146.855 328.111 146.834 328.261C146.814 328.411 146.428 329.001 146.271 329.256C146.113 329.508 145.757 333.04 145.679 333.61C145.602 334.181 145.854 335.468 145.854 335.468L145.717 337.836C145.616 339.575 147.416 339.114 147.416 339.114C147.374 339.934 147.659 340.363 148.12 340.517C148.58 340.67 149.126 340.539 149.213 340.573C149.3 340.608 149.334 340.864 149.334 340.864C149.285 341.386 149.873 341.786 150.253 341.861C150.633 341.936 151.31 341.683 151.5 341.457C151.692 341.23 151.823 341.263 151.823 341.263C152.207 341.59 153.676 341.576 154.016 341.103C154.355 340.63 154.664 338.133 154.816 337.909C154.967 337.684 155.297 337.302 155.345 336.94C155.394 336.58 156.598 334.021 156.667 333.511C156.736 333 155.992 331.277 155.826 330.246C155.661 329.215 154.656 327.61 154.414 327.149C154.319 326.969 154.345 326.379 154.414 325.728V325.734Z" fill="#F48C7F"/>
<path d="M190.749 232.004C190.749 232.004 179.544 231.288 175.111 236.134C172.896 238.554 165.188 294.977 160.954 339.722C158.897 361.46 120.994 436.871 120.994 436.871C120.994 436.871 150.156 474.123 236.631 459.193C236.631 442.356 238.787 390.591 237.953 378.228C236.278 353.417 218.833 309.115 215.483 259.607C215.18 255.139 207.96 237.291 206.35 235.528C204.737 233.767 190.749 232.004 190.749 232.004Z" fill="#4064A6"/>
<path d="M167.85 250.541C167.85 250.541 163.617 253.267 159.373 261.339C155.13 269.414 147.72 288.639 147.047 292.707C146.374 296.774 146.821 320.56 147.047 323.597C147.274 326.633 156.342 324.137 156.342 324.137C163.212 300.415 162.54 290.582 171.16 276.424C174.387 271.125 178.984 258.895 178.984 258.895C178.984 258.895 174.724 247.901 167.848 250.541H167.85Z" fill="#355389"/>
<path d="M194.475 216.99C194.475 216.99 194.417 217.322 194.314 217.884C193.815 220.585 191.891 229.547 190.592 232.01C189.022 234.986 195.969 244.482 202.655 243.324C204.645 242.978 200.972 234.6 201.15 233.712C201.487 232.014 201.946 229.695 202.414 227.32C202.679 225.979 202.948 224.618 203.198 223.341C203.914 219.71 204.498 216.74 204.498 216.74L194.477 216.99H194.475Z" fill="#F7A491"/>
<path d="M194.315 217.884C194.42 217.322 194.477 216.99 194.477 216.99L204.497 216.74C204.497 216.74 203.913 219.71 203.198 223.341C202.947 224.612 202.68 225.963 202.418 227.295C200.87 227.067 199.255 226.313 197.633 224.889C195.867 223.339 194.709 221.475 194.01 219.485C194.133 218.85 194.236 218.303 194.313 217.884H194.315Z" fill="#F47458"/>
<path d="M202.077 189.218C191.099 187.196 180.592 190.971 177.114 208.109C174.55 220.747 172.628 229.357 165.328 242.545C158.027 255.733 158.754 257.957 158.754 257.957C181.062 259.17 189.391 272.987 205.967 268.47C222.542 263.951 227.133 258.159 227.133 258.159C213.595 228.035 214.894 215.308 213.863 204.718C212.918 194.986 208.719 190.441 202.077 189.218Z" fill="#13375B"/>
<path d="M201.22 194.151C201.22 194.151 196.498 193.603 193.538 197.442C190.577 201.282 187.387 213.155 194.74 219.611C202.093 226.066 209.359 218.759 210.436 211.012C211.513 203.265 211.931 193.87 201.22 194.151Z" fill="#F7A491"/>
<path d="M197.393 213.727L205.037 214.031C205.037 214.031 204.746 216.93 201.38 216.893C197.276 216.849 197.391 213.729 197.391 213.729L197.393 213.727Z" fill="white"/>
<path d="M202.986 196.496C195.049 198.619 191.238 207.745 190.242 214.908C186.114 205.19 190.762 194.887 197.127 192.709C203.492 190.532 210.463 191.543 211.574 197.81C212.685 204.078 211.861 214.287 210.96 215.399C209.756 203.532 206.262 198.437 202.986 196.496Z" fill="#13375B"/>
<defs>
<linearGradient id="paint0_linear_4666_10689" x1="498.734" y1="473.904" x2="155.05" y2="173.847" gradientUnits="userSpaceOnUse">
<stop stop-color="#003C4B" stop-opacity="0.5"/>
<stop offset="1" stop-color="#007D89" stop-opacity="0.5"/>
</linearGradient>
</defs>
</svg>
