<svg width="70" height="70" viewBox="0 0 70 70" fill="none" xmlns="http://www.w3.org/2000/svg">
<circle cx="35" cy="35" r="34" fill="#FFFFEF" stroke="#F7B417" stroke-width="2"/>
<path d="M48.4898 39.0684L48.168 38.7198C49.8033 37.1969 51.1252 36.0886 53.0405 34.9347C53.7941 34.4828 54.6004 34.0825 55.4378 33.7448L55.4653 33.7352C56.091 33.4816 56.4929 32.8661 56.5061 32.1329C56.53 30.7843 56.207 28.5198 54.5227 25.385C52.7677 22.1084 50.9996 20.7574 49.8261 20.2009C49.3129 19.9521 48.753 19.9485 48.2817 20.1865L48.2721 20.1961L48.2183 20.2213C48.0879 20.2718 47.9455 20.3295 47.7912 20.392C46.6236 20.8656 44.6689 21.6577 42.4964 21.5074C41.4377 21.4305 40.4173 21.6373 39.55 22.1048L35.7386 24.147L32.84 26.2529L32.5625 25.867L35.4982 23.7371L39.3263 21.6853C40.2725 21.1769 41.3791 20.9521 42.5287 21.0339C44.5899 21.1781 46.4107 20.4401 47.6141 19.9521C47.7589 19.8932 47.8941 19.8391 48.0185 19.7898L48.0292 19.7826C48.6393 19.4557 49.3691 19.4521 50.0294 19.7718C51.2652 20.3572 53.123 21.7683 54.939 25.1603C56.6712 28.3852 57.0049 30.7374 56.9798 32.1426C56.9631 33.0561 56.4355 33.8566 55.634 34.1811L55.6065 34.1907C54.8002 34.5153 54.0166 34.9047 53.2845 35.3434C51.404 36.4769 50.1036 37.5671 48.491 39.0696L48.4898 39.0684Z" fill="black"/>
<path d="M46.4093 42.325C46.388 42.325 46.3667 42.325 46.3455 42.325C45.747 42.3109 45.1543 42.0932 44.6762 41.712L44.9678 41.3484C45.3668 41.6661 45.8591 41.8485 46.3561 41.8602C46.9913 41.8814 47.578 41.6143 47.957 41.1436C48.4209 40.5671 48.5036 39.7611 48.1706 39.0421C48.0219 38.715 47.7905 38.422 47.5025 38.1902L39.8748 32.1046C39.1346 31.5292 38.7663 31.2738 38.4428 31.0503C38.019 30.7573 37.6542 30.5043 36.6318 29.6606L36.9293 29.3018C37.9364 30.1325 38.2941 30.3808 38.7084 30.6679C39.0378 30.8961 39.4109 31.1538 40.1641 31.7398L47.7952 37.8266C48.1411 38.1032 48.4174 38.4562 48.5957 38.848C49.0029 39.727 48.8979 40.7189 48.3218 41.4343C47.8637 42.0026 47.1695 42.325 46.4093 42.325Z" fill="black"/>
<path d="M17.8419 36.6277C17.5276 36.3409 17.1919 36.0567 16.804 35.7281C16.4992 35.4708 16.1599 35.1829 15.7625 34.837C15.0437 34.2082 14.2478 33.6076 13.3937 33.0525L13.3854 33.0489C12.5598 32.5098 12.1127 31.5622 12.2313 30.6232C12.4068 29.1685 13.115 26.8228 15.4862 23.9184C17.9676 20.8798 20.1977 19.8891 21.6306 19.5925C22.3802 19.4301 23.1596 19.6134 23.7621 20.0959L23.7764 20.1069C24.2769 20.4282 24.7004 20.8527 25.1476 21.3019C25.9862 22.1437 26.8545 23.0151 28.425 23.4606C28.5021 23.4852 30.1735 24.0267 32.5612 25.778L32.2908 26.1755C29.9706 24.4734 28.3111 23.9332 28.2945 23.9282C26.6149 23.452 25.6624 22.4957 24.8214 21.6527C24.3861 21.2146 23.9733 20.8011 23.5059 20.5069L23.4573 20.4663C22.9805 20.086 22.3435 19.9371 21.7231 20.07C20.3602 20.3519 18.2369 21.3032 15.842 24.2334C13.5479 27.0456 12.8647 29.294 12.6963 30.6847C12.6002 31.4477 12.9537 32.1923 13.6191 32.6267L13.6274 32.6304C14.5147 33.2076 15.3284 33.8217 16.0638 34.4641C16.4576 34.8075 16.7969 35.0943 17.0994 35.3502C17.4908 35.6825 17.8301 35.968 18.1515 36.2622L17.8419 36.6277Z" fill="black"/>
<path d="M35.5982 50.4647C35.5778 50.4647 35.5586 50.4647 35.5382 50.4647C34.7534 50.4447 33.7886 49.9943 32.9597 49.2619L31.748 48.1938L32.0278 47.8082L33.2394 48.8763C33.9947 49.5439 34.8588 49.9531 35.5484 49.9718C35.9685 49.9831 36.323 49.8521 36.6117 49.5825C37.119 49.1645 37.3965 48.6293 37.4044 48.0678C37.4123 47.5262 37.1666 46.9959 36.7318 46.6129L37.0115 46.2273L38.0284 47.1232C38.4122 47.4626 38.8867 47.656 39.3623 47.6685C39.9693 47.6835 40.5321 47.4065 40.8956 46.9074C41.2013 46.4869 41.3384 45.9491 41.2829 45.3926C41.2206 44.7737 40.9205 44.1847 40.4608 43.7792L40.7405 43.3937L41.9261 44.4368C42.9079 45.1892 44.0958 45.0994 44.7378 44.2134C45.0606 43.768 45.1953 43.199 45.1149 42.6101C45.0334 42.0186 44.7446 41.4759 44.3019 41.0816L44.5827 40.6973C45.1138 41.1689 45.4603 41.8215 45.5577 42.5365C45.6562 43.2627 45.4886 43.9664 45.0866 44.5204C44.3053 45.5972 42.8309 45.7307 41.6566 44.8298L41.6226 44.7999C41.6724 44.9746 41.7075 45.153 41.7268 45.3352C41.7959 46.0239 41.6249 46.6902 41.2444 47.2143C40.7937 47.8357 40.1018 48.1838 39.351 48.1613C38.7995 48.1476 38.2503 47.9318 37.7996 47.5524C37.837 47.7234 37.854 47.8981 37.8517 48.0753C37.8415 48.794 37.4995 49.4665 36.8892 49.9681C36.5381 50.295 36.101 50.4647 35.5971 50.4647H35.5982Z" fill="black"/>
<path d="M27.6881 45.5815L27.6768 45.5698L28.4907 44.7676L27.6881 45.5815Z" fill="black"/>
<path d="M35.6785 36.6278C34.7666 36.6278 33.9426 36.1378 33.4346 35.2256L30.7393 30.3781C30.1318 29.2848 29.9732 28.3816 30.2568 27.6172L30.2811 27.5527L30.3389 27.5127L34.8233 24.4185L35.0907 24.7751L30.6664 27.8272C30.4616 28.456 30.6178 29.2237 31.1432 30.1704L33.8385 35.0178C34.6058 36.3944 35.873 36.3744 36.8022 35.8978C37.507 35.5345 38.2673 34.4712 37.47 33.0357L35.8834 30.1859L36.4053 27.3216L36.8566 27.3972L36.3613 30.1126L37.8727 32.8291C38.7187 34.3512 38.0637 35.7456 37.0187 36.2844C36.5685 36.5155 36.1137 36.6266 35.6785 36.6266V36.6278Z" fill="black"/>
<path d="M20.1577 39.648C20.0778 39.648 19.9978 39.6444 19.9166 39.6373C19.2447 39.5746 18.6408 39.2587 18.2135 38.7452C17.785 38.2352 17.5845 37.5869 17.6466 36.9219C17.7098 36.2558 18.0285 35.6571 18.5465 35.2335L20.9049 33.3014L21.5482 32.9287C22.5675 32.5228 23.7204 32.8139 24.4162 33.6528C24.8089 34.1201 25.013 34.7165 24.9903 35.3305C24.9641 36.0452 24.6335 36.7137 24.0833 37.1633L21.7559 39.0741C21.3035 39.448 20.7426 39.648 20.1565 39.648H20.1577ZM21.1603 33.6954L18.8472 35.5956C18.4271 35.9387 18.1681 36.4262 18.1168 36.9657C18.0655 37.5064 18.229 38.0329 18.5763 38.447C18.9224 38.8635 19.4142 39.1203 19.9596 39.1711C20.5074 39.222 21.0362 39.0599 21.4539 38.7156L23.7825 36.8036C24.2289 36.438 24.4974 35.8961 24.5189 35.3152C24.5368 34.8158 24.3709 34.3319 24.0522 33.9521C23.4984 33.2848 22.5508 33.0434 21.7392 33.357L21.1591 33.6966L21.1603 33.6954Z" fill="black"/>
<path d="M25.9643 46.6013C25.2398 46.6013 24.5201 46.2949 24.0224 45.7021C23.144 44.6455 23.2896 43.0731 24.3459 42.1952L26.69 40.2713C27.7582 39.3981 29.3444 39.5484 30.2276 40.605C30.6203 41.0723 30.8243 41.6686 30.8029 42.2839C30.7766 42.9985 30.446 43.667 29.8958 44.1166L27.5684 46.031C27.0993 46.4144 26.53 46.6013 25.9643 46.6013ZM28.2881 40.1707C27.8298 40.1707 27.3703 40.3222 26.9895 40.6322L24.6466 42.5537C23.7897 43.2671 23.6715 44.545 24.3853 45.4028C25.105 46.2594 26.3975 46.3801 27.2664 45.669L29.5938 43.7534C30.0402 43.3878 30.3087 42.8447 30.3302 42.2638C30.3481 41.7645 30.1822 41.2806 29.8636 40.9008C29.4601 40.418 28.8753 40.1684 28.2869 40.1684L28.2881 40.1707Z" fill="black"/>
<path d="M23.0561 43.1253C22.9773 43.1253 22.8973 43.1218 22.8173 43.1147C22.149 43.0531 21.5474 42.7384 21.1213 42.2296C20.2405 41.1754 20.3885 39.6065 21.4531 38.7333L24.6363 36.1161C25.1495 35.6949 25.7988 35.4973 26.4683 35.5589C27.1367 35.6216 27.7383 35.9351 28.1632 36.4439C28.5558 36.9112 28.7599 37.5052 28.7384 38.1145C28.7122 38.8233 28.384 39.4882 27.8361 39.9402L24.6494 42.5538C24.1983 42.9265 23.6397 43.1241 23.0561 43.1241V43.1253ZM26.2284 36.0168C25.7558 36.0168 25.3035 36.1765 24.9382 36.477L21.7551 39.0942C20.891 39.8029 20.7704 41.076 21.4854 41.9315C21.8303 42.3444 22.3185 42.5988 22.8615 42.6485C23.4034 42.6982 23.9321 42.5373 24.3474 42.1942L27.5342 39.5805C27.9782 39.2137 28.2455 38.6742 28.267 38.0992C28.2849 37.6046 28.119 37.123 27.8003 36.7432C27.4554 36.3303 26.9672 36.0759 26.4242 36.025C26.3585 36.0191 26.2929 36.0156 26.2284 36.0156V36.0168Z" fill="black"/>
<path d="M29.3087 49.3664C28.6296 49.3664 27.9564 49.0789 27.491 48.5216C27.0911 48.0424 26.9026 47.4354 26.9622 46.8131C27.0219 46.1907 27.3203 45.6299 27.8037 45.2347L28.9196 44.3166C28.9853 44.2645 29.0485 44.216 29.1142 44.1758C30.1143 43.5049 31.4618 43.6942 32.2388 44.623C32.6064 45.0655 32.7974 45.6228 32.7759 46.1955C32.752 46.8663 32.4417 47.4922 31.9261 47.9134L30.8102 48.8316C30.371 49.1913 29.8386 49.3664 29.3087 49.3664ZM30.4282 44.2468C30.063 44.2468 29.6954 44.3521 29.3696 44.5698C29.3111 44.6064 29.2646 44.6431 29.2168 44.681L28.1033 45.5956C27.7177 45.9115 27.479 46.3587 27.4313 46.8568C27.3836 47.355 27.5339 47.8413 27.8526 48.2234C28.515 49.015 29.7062 49.1274 30.507 48.4719L31.623 47.5537C32.0359 47.2165 32.283 46.7161 32.3021 46.1789C32.3188 45.721 32.166 45.2749 31.8724 44.9212C31.5012 44.4787 30.9665 44.2456 30.4247 44.2456L30.4282 44.2468Z" fill="black"/>
<path d="M40.0943 37.4767L39.8049 37.8457L44.507 41.4692L44.7964 41.1003L40.0943 37.4767Z" fill="black"/>
<path d="M36.7852 40.6086L36.4951 40.9785L40.4556 44.0306L40.7457 43.6606L36.7852 40.6086Z" fill="black"/>
<path d="M33.4565 43.7604L33.1665 44.1304L36.5272 46.7193L36.8172 46.3493L33.4565 43.7604Z" fill="black"/>
<path d="M40.9558 31.7441C39.7835 31.7441 39.1333 31.4306 39.0737 31.4006L39.2832 31.0105L39.1791 31.205L39.2832 31.0093C39.3141 31.0249 42.4532 32.5022 47.749 28.4883L48.0272 28.8351C44.8905 31.2128 42.4829 31.743 40.9569 31.743L40.9558 31.7441Z" fill="black"/>
</svg>
