<svg width="70" height="70" viewBox="0 0 70 70" fill="none" xmlns="http://www.w3.org/2000/svg">
<circle cx="35" cy="35" r="34" fill="#FFFFEF" stroke="#F7B417" stroke-width="2"/>
<g clip-path="url(#clip0_4848_8721)">
<g opacity="0.32">
<path d="M52.5913 35.9186C52.5861 35.9364 52.5823 35.9542 52.5771 35.9719C50.6773 43.6116 46.4743 52.2639 39.1302 57.7182C38.335 58.3096 37.4959 58.8629 36.6131 59.3743H34.3472C16.1302 48.8413 16.9422 20.0341 16.9422 20.0341C20.1373 19.7168 23.7075 18.3767 27.4324 16.6127C30.1236 15.3386 33.0261 14.7155 35.9248 14.7472C38.6753 14.7752 41.4206 15.3919 43.9764 16.5988C47.7284 18.3704 51.3269 19.7155 54.5311 20.0341C54.5311 20.0341 54.7218 27.3285 52.5913 35.9199V35.9186Z" fill="#D1B397"/>
</g>
<path d="M34.7764 14.4517C37.3213 14.4772 39.8619 15.0072 42.248 16.0425L42.7236 16.2563C46.3654 17.9543 49.9127 19.2825 53.127 19.6831C53.1272 19.8885 53.1266 20.1645 53.1201 20.5034C53.1047 21.3131 53.062 22.4836 52.9521 23.9214C52.7323 26.7988 52.2449 30.7413 51.1748 35.0024L51.1445 35.1206C49.2875 42.4568 45.7132 50.651 38.873 56.0112L38.1992 56.522C37.0759 57.3465 35.8639 58.0946 34.5625 58.7563L34.29 58.6177L34.2871 58.6167L33.8467 58.3804C24.6607 53.3524 20.1967 43.7386 18.0381 35.2349C16.944 30.9246 16.4488 26.9242 16.2275 24.0015C16.117 22.5409 16.075 21.3504 16.0605 20.5269C16.0544 20.1779 16.054 19.8948 16.0547 19.6851C19.0504 19.312 22.3191 18.1314 25.6855 16.5981L26.3936 16.271H26.3945C28.8857 15.1056 31.5589 14.5003 34.2402 14.4536L34.7764 14.4517Z" fill="white" stroke="black"/>
<path d="M36.0764 14.5117C38.1828 14.6755 40.2687 15.185 42.2483 16.0439L42.7239 16.2578C46.3657 17.9558 49.9129 19.284 53.1272 19.6846C53.1274 19.89 53.1268 20.166 53.1204 20.5049C53.1049 21.3146 53.0622 22.485 52.9524 23.9229C52.7326 26.8003 52.2442 30.7426 51.1741 35.0039L51.1516 35.0908C49.1914 42.6452 45.4208 51.0696 38.1985 56.5225C37.1497 57.2922 36.0244 57.9963 34.8206 58.625C36.1955 55.7649 39.5341 48.274 41.1174 39.8525C42.76 31.116 42.5455 21.2093 36.0764 14.5117Z" fill="white" stroke="black"/>
<path d="M34.5675 55.4454L34.4373 55.3807C30.6957 53.5241 27.5431 50.632 25.0698 46.7842C23.0965 43.7157 21.5485 40.0355 20.4672 35.8464C18.6292 28.7258 18.7839 22.5049 18.7852 22.4428L18.7929 22.1928L19.0455 22.1674C21.341 21.9415 24.0631 21.0633 27.6114 19.4034C32.031 17.3361 37.1001 17.3323 41.5184 19.392C45.0938 21.0582 47.8326 21.9402 50.1384 22.1674L50.3911 22.1928L50.3975 22.4428C50.3988 22.5049 50.5406 28.7245 48.6923 35.8451C47.6045 40.0342 46.0501 43.7144 44.073 46.783C41.5932 50.6307 38.4393 53.5228 34.6977 55.3794L34.5675 55.4442V55.4454ZM19.3587 22.7067C19.351 23.9237 19.4155 29.4707 21.0304 35.7207C22.6944 42.1611 26.3934 50.684 34.5688 54.8096C42.7441 50.684 46.4561 42.1611 48.1304 35.7207C49.7556 29.472 49.8291 23.925 49.824 22.7067C47.5053 22.4351 44.778 21.5417 41.271 19.9072C37.0099 17.9212 32.1212 17.925 27.8576 19.9186C24.3763 21.5468 21.6658 22.4364 19.3575 22.7067H19.3587Z" fill="white"/>
<path d="M34.5108 59.419C34.3227 59.3263 34.1564 59.24 34.0017 59.1588C27.0199 55.509 21.8721 48.9405 18.6989 39.6359C16.1598 32.1892 15.5837 24.9645 15.4651 21.3211L15.6958 21.3135C15.9123 28.0001 17.8804 50.4735 34.11 58.957C34.2634 59.0382 34.4284 59.1233 34.614 59.2146L34.5108 59.4177V59.419Z" fill="#5B322C"/>
<path d="M38.563 57.0153L38.425 56.8339C44.6478 52.2704 49.0583 44.9747 51.5329 35.1498C51.5394 35.1282 51.5433 35.1142 51.5471 35.0977C52.9804 29.3934 53.3683 24.2221 53.4714 21.6484L53.7021 21.6573C53.599 24.2411 53.2098 29.4289 51.7714 35.151C51.7662 35.1713 51.7611 35.1904 51.7546 35.2107C50.6552 39.5762 49.1343 43.5191 47.2371 46.9239C44.9055 51.1079 41.9875 54.5026 38.5617 57.0153H38.563Z" fill="#5B322C"/>
<path d="M52.0397 19.1255C49.4838 18.6484 46.5749 17.6255 42.8861 15.906C40.3289 14.7131 37.6017 14.0938 34.7803 14.0646C31.8507 14.0342 28.8927 14.675 26.2312 15.9199C22.6301 17.604 19.7842 18.6141 17.2761 19.1002L17.231 18.8768C19.7198 18.3946 22.5476 17.3895 26.1307 15.7144C28.8257 14.4555 31.8198 13.807 34.7829 13.8375C37.6378 13.8666 40.3973 14.4935 42.9853 15.7004C46.656 17.4111 49.547 18.4288 52.0835 18.9022L52.041 19.1255H52.0397Z" fill="#5B322C"/>
<path d="M34.7015 42.4845L26.793 32.6469L29.2973 30.6951L34.6693 37.3766L42.8588 26.9248L45.3876 28.8461L34.7015 42.4845Z" fill="black"/>
</g>
<defs>
<clipPath id="clip0_4848_8721">
<rect width="39.0698" height="45.5814" fill="white" transform="translate(15.4651 13.8374)"/>
</clipPath>
</defs>
</svg>
