<svg width="46" height="46" viewBox="0 0 46 46" fill="none" xmlns="http://www.w3.org/2000/svg">
<circle cx="23" cy="23" r="22" fill="#FFFFEF" stroke="#F7B417" stroke-width="2"/>
<circle cx="23.0001" cy="23.0001" r="13.7857" fill="#FAFAFA" stroke="#F7B417" stroke-width="2"/>
<g clip-path="url(#clip0_4848_8649)">
<path d="M43 23.0106C43 22.6982 42.7452 22.4482 42.4299 22.4482H40.552V23.573H42.4299C42.7452 23.573 43 23.3231 43 23.0106Z" fill="#002233"/>
<path d="M23.0133 3C22.7048 3 22.45 3.2569 22.45 3.56935V5.45096H23.5767V3.56935C23.5767 3.2569 23.3218 3 23.0133 3Z" fill="#002233"/>
<path d="M3 22.9896C3 23.3021 3.25486 23.5521 3.57009 23.5521H5.44802V22.4272H3.57009C3.25486 22.4272 3 22.6772 3 22.9896Z" fill="#002233"/>
<path d="M22.9865 42.9998C23.295 42.9998 23.5499 42.7429 23.5499 42.4304V40.5488H22.4231V42.4304C22.4231 42.7429 22.678 42.9998 22.9865 42.9998Z" fill="#002233"/>
<path d="M22.9999 41.292C18.1106 41.292 13.5097 39.3896 10.0623 35.9388C6.61497 32.488 4.71021 27.8916 4.71021 22.9966C4.71021 18.1016 6.60826 13.5052 10.0623 10.0544C13.5097 6.60362 18.1106 4.70117 22.9999 4.70117C27.8893 4.70117 32.4902 6.60362 35.9376 10.0544C39.3916 13.5052 41.2897 18.1016 41.2897 22.9966C41.2897 27.8916 39.3916 32.488 35.9376 35.9388C32.4835 39.3896 27.8893 41.292 22.9999 41.292ZM22.9999 11.8874C20.0288 11.8874 17.232 13.04 15.1394 15.1369C10.8068 19.4694 10.8068 26.5238 15.1394 30.8633C17.2387 32.9602 20.0288 34.1127 22.9999 34.1127C25.9711 34.1127 28.7612 32.9602 30.8604 30.8633C35.1931 26.5307 35.1931 19.4764 30.8604 15.1369C28.7612 13.04 25.9711 11.8874 22.9999 11.8874Z" fill="black"/>
<path d="M10.4244 35.5777C3.49621 28.6414 3.49621 17.3586 10.4244 10.4293C17.3594 3.49298 28.6337 3.49298 35.5686 10.4293C42.5036 17.3656 42.4969 28.6414 35.5686 35.5777C28.6337 42.507 17.3594 42.514 10.4244 35.5777ZM31.2293 14.7757C26.6954 10.2418 19.3111 10.2418 14.7705 14.7757C10.2367 19.3097 10.2367 26.6973 14.7705 31.2312C19.3111 35.7721 26.6887 35.7721 31.2226 31.2312C35.7564 26.6903 35.7564 19.3097 31.2226 14.7757H31.2293Z" fill="white"/>
<path d="M32.0141 7.75618C32.0141 7.75618 32.0074 7.75618 32.0007 7.74924C27.0376 4.38177 18.9625 4.38177 14.0061 7.74924C14.0061 7.74924 13.9994 7.74924 13.9927 7.75618C19.0698 4.70115 26.937 4.70115 32.0141 7.75618Z" fill="white"/>
<path d="M29.8678 32.2725C29.8678 32.2725 29.8678 32.2725 29.8611 32.2794C26.0784 35.6469 19.9215 35.6469 16.1388 32.2794C16.1388 32.2794 16.1388 32.2794 16.1321 32.2725C20.002 35.3275 25.9979 35.3275 29.8745 32.2725H29.8678Z" fill="white"/>
<path d="M34.4957 9.20703L29.8679 13.8312C30.2972 14.1506 30.7063 14.5047 31.102 14.9005C31.491 15.2893 31.8465 15.7059 32.1684 16.1294L36.7962 11.5052C36.4541 11.0956 36.0919 10.6929 35.7029 10.3041C35.3139 9.91524 34.9115 9.55419 34.5024 9.20703H34.4957Z" fill="black"/>
<path d="M9.20386 11.5054L13.8316 16.1295C14.1536 15.6991 14.509 15.2894 14.898 14.8937C15.287 14.5048 15.7029 14.1507 16.1321 13.8244L11.5043 9.2002C11.0952 9.54736 10.6861 9.90841 10.3038 10.2972C9.91479 10.686 9.55262 11.0888 9.21056 11.4984L9.20386 11.5054Z" fill="black"/>
<path d="M11.5045 36.7925L16.1322 32.1683C15.703 31.8489 15.2939 31.4948 14.8982 31.0991C14.5092 30.7102 14.1537 30.2937 13.8318 29.8701L9.21069 34.4943C9.55275 34.904 9.91492 35.3067 10.3039 35.6955C10.6929 36.0843 11.0953 36.4454 11.5045 36.7925Z" fill="black"/>
<path d="M36.7962 34.4943L32.1684 29.8701C31.8465 30.3006 31.491 30.7102 31.102 31.106C30.713 31.4948 30.2972 31.8489 29.8679 32.1753L34.4957 36.7995C34.9115 36.4523 35.3139 36.0913 35.7029 35.7024C36.0919 35.3136 36.4541 34.9109 36.7962 34.5013V34.4943Z" fill="black"/>
</g>
<defs>
<clipPath id="clip0_4848_8649">
<rect width="40" height="40" fill="white" transform="translate(3 3)"/>
</clipPath>
</defs>
</svg>
