<svg width="104" height="24" viewBox="0 0 104 24" fill="none" xmlns="http://www.w3.org/2000/svg">
<path d="M86.449 2.68082L92.3948 0L103.296 3.9683C103.296 3.9683 106.831 18.1545 92.6517 23.8055C92.6517 23.8055 91.1032 23.694 87.9329 21.5186L89.6565 19.8231C90.0081 20.1845 91.0831 21.1939 92.4996 21.1233C93.2717 21.0838 93.8673 20.7379 94.6853 20.1168C95.6827 19.3601 97.2844 18.1432 98.4928 16.2953C101.245 12.0856 100.763 6.41337 100.676 5.51411L92.557 2.69776L88.9691 4.14617L86.449 2.67941V2.68082Z" fill="#F7B417"/>
<path d="M84.5369 10.0814C84.248 10.0814 84.1432 10.0061 84.1177 9.64994C83.9604 7.62281 82.2054 5.92577 78.9814 5.92577C75.7574 5.92577 73.059 8.10494 73.059 11.8551C73.059 15.6053 75.6016 17.7845 78.9814 17.7845C82.1785 17.7845 83.908 16.3148 84.1177 14.3384C84.1432 13.959 84.2225 13.8823 84.5624 13.8823H86.0299C86.1872 13.8823 86.4492 13.8316 86.4492 14.085C86.4492 17.101 83.6984 19.7103 78.9814 19.7103C74.2645 19.7103 70.7529 16.7709 70.7529 11.8551C70.7529 6.93934 74.3169 4 78.9814 4C83.9604 4 86.4492 7.09137 86.4492 9.828C86.4492 9.95401 86.3444 10.0814 86.0554 10.0814H84.5355H84.5369Z" fill="#F7B417"/>
<path d="M60.6913 17.5311H69.3391C69.4963 17.5311 69.706 17.7338 69.706 17.8859V19.1021C69.706 19.2542 69.4963 19.4569 69.3391 19.4569H58.6997C58.5425 19.4569 58.3853 19.3049 58.3853 19.1528V4.55749C58.3853 4.40545 58.5425 4.25342 58.6997 4.25342H60.3769C60.5341 4.25342 60.6913 4.40545 60.6913 4.55749V17.5311Z" fill="#F7B417"/>
<path d="M53.5637 4.25342C53.7209 4.25342 53.8781 4.40545 53.8781 4.55749V19.1528C53.8781 19.3049 53.7209 19.4569 53.5637 19.4569H51.8865C51.7293 19.4569 51.572 19.3049 51.572 19.1528V8.1803H51.4927C51.4927 8.1803 51.1528 9.04183 50.5762 9.82666L44.9952 17.5298L39.4142 9.82666C38.8377 9.04046 38.4963 8.1803 38.4963 8.1803H38.4184V19.1515C38.4184 19.3035 38.2611 19.4555 38.1039 19.4555H36.4268C36.2695 19.4555 36.1123 19.3035 36.1123 19.1515V4.55749C36.1123 4.40545 36.2695 4.25342 36.4268 4.25342H37.5005C37.6832 4.25342 37.8674 4.33012 37.9977 4.50681L44.9683 14.085H45.0207L51.9913 4.50681C52.1217 4.33012 52.3058 4.25342 52.4885 4.25342H53.5622H53.5637Z" fill="#F7B417"/>
<path d="M19.1301 4.55749C19.1301 4.40545 19.2873 4.25342 19.4445 4.25342H26.1531C29.8474 4.25342 32.5472 6.02716 32.5472 9.24454C32.5472 11.7018 30.9225 13.2481 28.5116 13.8302V13.8809C28.5116 13.8809 29.0612 14.3617 29.5074 14.9698L32.4948 18.9734C32.652 19.1761 32.6775 19.2528 32.6775 19.3035C32.6775 19.4048 32.6251 19.4555 32.4679 19.4555H30.3191C30.1887 19.4555 30.0315 19.3788 29.9522 19.2788L26.0738 14.085H21.4347V19.1528C21.4347 19.3049 21.2775 19.4569 21.1203 19.4569H19.4431C19.2859 19.4569 19.1287 19.3049 19.1287 19.1528V4.55749H19.1301ZM21.4362 6.17919V12.2852H26.1007C28.5116 12.2852 30.2411 11.221 30.2411 9.24454C30.2411 7.26809 28.5385 6.17919 26.1007 6.17919H21.4362Z" fill="#F7B417"/>
<path d="M12.6565 16.3148H3.9308L2.49022 19.1268C2.30749 19.4555 2.25366 19.4555 1.94061 19.4555H0.236556C0.0793243 19.4555 0 19.3542 0 19.2788C0 19.2035 0.0793243 19.0761 0.131735 18.9748L7.83469 4.25342H8.77808L16.4825 18.9748C16.5349 19.0761 16.6128 19.2035 16.6128 19.2788C16.6128 19.3542 16.5335 19.4555 16.3762 19.4555H14.6722C14.3577 19.4555 14.3053 19.4555 14.1226 19.1268L12.6551 16.3148H12.6565ZM4.92661 14.3891H11.6607L9.56425 10.3348C9.17187 9.57464 8.3843 7.5475 8.3843 7.5475H8.22707C8.22707 7.5475 7.4409 9.57464 7.04712 10.3348L4.92519 14.3891H4.92661Z" fill="#F7B417"/>
</svg>
