<svg width="127" height="30" viewBox="0 0 127 30" fill="none" xmlns="http://www.w3.org/2000/svg">
<path d="M105.312 3.26579L112.556 0L125.836 4.83419C125.836 4.83419 130.142 22.1159 112.869 29C112.869 29 110.982 28.8641 107.12 26.214L109.22 24.1486C109.648 24.5889 110.958 25.8185 112.683 25.7325C113.624 25.6843 114.349 25.263 115.346 24.5063C116.561 23.5845 118.512 22.1021 119.984 19.851C123.338 14.7227 122.75 7.81279 122.643 6.71731L112.753 3.28643L108.383 5.05088L105.312 3.26407V3.26579Z" fill="#F7B417"/>
<path d="M102.983 12.7023C102.631 12.7023 102.503 12.6069 102.472 12.1558C102.281 9.58841 100.143 7.43905 96.2154 7.43905C92.2879 7.43905 89.0007 10.199 89.0007 14.9488C89.0007 19.6985 92.0981 22.4585 96.2154 22.4585C100.11 22.4585 102.217 20.5971 102.472 18.0939C102.503 17.6133 102.6 17.5162 103.014 17.5162H104.802C104.993 17.5162 105.313 17.452 105.313 17.7729C105.313 21.5929 101.962 24.8976 96.2154 24.8976C90.4692 24.8976 86.1914 21.1748 86.1914 14.9488C86.1914 8.72277 90.533 5 96.2154 5C102.281 5 105.313 8.91532 105.313 12.3813C105.313 12.5409 105.185 12.7023 104.833 12.7023H102.981H102.983Z" fill="#F7B417"/>
<path d="M73.934 22.1374H84.4688C84.6603 22.1374 84.9157 22.3942 84.9157 22.5867V24.1272C84.9157 24.3198 84.6603 24.5765 84.4688 24.5765H71.5078C71.3163 24.5765 71.1248 24.3839 71.1248 24.1914V5.70591C71.1248 5.51336 71.3163 5.3208 71.5078 5.3208H73.5509C73.7425 5.3208 73.934 5.51336 73.934 5.70591V22.1374Z" fill="#F7B417"/>
<path d="M65.2517 5.3208C65.4433 5.3208 65.6348 5.51336 65.6348 5.70591V24.1914C65.6348 24.3839 65.4433 24.5765 65.2517 24.5765H63.2086C63.0171 24.5765 62.8255 24.3839 62.8255 24.1914V10.2943H62.7289C62.7289 10.2943 62.3148 11.3855 61.6125 12.3795L54.8136 22.1357L48.0148 12.3795C47.3125 11.3837 46.8966 10.2943 46.8966 10.2943H46.8017V24.1896C46.8017 24.3822 46.6102 24.5748 46.4186 24.5748H44.3755C44.184 24.5748 43.9924 24.3822 43.9924 24.1896V5.70591C43.9924 5.51336 44.184 5.3208 44.3755 5.3208H45.6835C45.9061 5.3208 46.1304 5.41795 46.2892 5.64173L54.7808 17.7728H54.8447L63.3363 5.64173C63.4951 5.41795 63.7194 5.3208 63.942 5.3208H65.25H65.2517Z" fill="#F7B417"/>
<path d="M23.3045 5.70591C23.3045 5.51336 23.496 5.3208 23.6875 5.3208H31.8599C36.3603 5.3208 39.6493 7.5673 39.6493 11.6422C39.6493 14.7544 37.67 16.7129 34.7331 17.4502V17.5143C34.7331 17.5143 35.4026 18.1232 35.9462 18.8935L39.5854 23.9641C39.777 24.2209 39.808 24.318 39.808 24.3822C39.808 24.5106 39.7442 24.5748 39.5526 24.5748H36.9349C36.7762 24.5748 36.5846 24.4776 36.488 24.351L31.7633 17.7728H26.112V24.1914C26.112 24.3839 25.9205 24.5765 25.7289 24.5765H23.6858C23.4943 24.5765 23.3027 24.3839 23.3027 24.1914V5.70591H23.3045ZM26.1137 7.75986V15.4934H31.7961C34.7331 15.4934 36.84 14.1455 36.84 11.6422C36.84 9.13898 34.7658 7.75986 31.7961 7.75986H26.1137Z" fill="#F7B417"/>
<path d="M15.4182 20.597H4.78852L3.03359 24.1584C2.81099 24.5748 2.74542 24.5748 2.36406 24.5748H0.288174C0.0966332 24.5748 0 24.4464 0 24.351C0 24.2556 0.0966332 24.0942 0.16048 23.9659L9.54425 5.3208H10.6935L20.079 23.9659C20.1428 24.0942 20.2377 24.2556 20.2377 24.351C20.2377 24.4464 20.1411 24.5748 19.9496 24.5748H17.8737C17.4906 24.5748 17.4268 24.5748 17.2042 24.1584L15.4164 20.597H15.4182ZM6.00161 18.1579H14.2051L11.6512 13.0231C11.1732 12.0603 10.2138 9.49287 10.2138 9.49287H10.0222C10.0222 9.49287 9.06454 12.0603 8.58482 13.0231L5.99988 18.1579H6.00161Z" fill="#F7B417"/>
</svg>
